<svg fill="none" height="624" width="592" xmlns="http://www.w3.org/2000/svg" xmlns:xlink="http://www.w3.org/1999/xlink"><linearGradient id="a" gradientUnits="userSpaceOnUse" x1="572.624" x2="118.877" y1="213.481" y2="355.445"><stop offset="0" stop-color="#d3d2d2"/><stop offset="1" stop-color="#d3d2d2"/></linearGradient><linearGradient id="b" gradientUnits="userSpaceOnUse" x1=".008" x2="580.369" y1="306.513" y2="306.513"><stop offset="0" stop-color="#939598"/><stop offset="1" stop-color="#fdfdfd"/></linearGradient><path d="m301.402 623.89h-.404c-12.333-4.624-330.906-129.732-285.574-551.849 0 0 80.35-61.031 285.574-61.031h.367c205.224 0 285.574 61.031 285.574 61.031 45.369 422.117-273.204 547.225-285.537 551.849z" fill="url(#a)"/><path d="m290.391 612.88h-.404c-12.333-4.624-330.906-129.732-285.574-551.849 0 0 80.35-61.031 285.574-61.031h.367c205.224 0 285.574 61.031 285.574 61.031 45.368 422.117-273.204 547.225-285.537 551.849z" fill="url(#b)"/><path d="m290.353 578.089s-91.472-33.47-166.022-128.998l-.294-.294a427.838 427.838 0 0 1 -46.323-74.059c-35.678-72.518-57.408-168.083-44.047-292.274 0 0 28.374-21.506 94.959-37.58 39.642-9.579 92.866-17.212 161.727-17.212-.367-.404 0 550.417 0 550.417z" fill="#8d267d"/><path d="m500.68 378.665v.257a427.526 427.526 0 0 1 -43.424 68.811c-74.807 96.52-167.27 130.356-167.27 130.356v-128.961-118.356-303.1c184.559 0 256.943 54.792 256.943 54.792 13.398 126.466-9.396 223.242-46.249 296.201z" fill="#94939b"/><g fill="#fff"><path d="m289.986 330.992v118.245l-135.556-235.426-30.099 235.28-.293-.294a427.814 427.814 0 0 1 -46.324-74.059l-.22-.478 50.986-329.377 161.507 286.109z"/><path d="m502.551 374.334c-.624 1.505-1.248 2.936-1.872 4.404v.257a427.524 427.524 0 0 1 -43.424 68.738l-1.505 1.504-29.952-235.426-135.813 235.316v-118.355l161.507-285.889z"/></g></svg>