<svg fill="none" height="94" viewBox="0 0 275 94" width="275" xmlns="http://www.w3.org/2000/svg"><path d="m263.68 93.7134c-8.207-4.4946-16.61-7.8167-25.208-10.7479-18.174-5.6671-36.738-7.2304-55.498-6.0579-17.197 1.1725-34.003 4.8854-50.418 9.38-16.415 4.2991-33.2203 6.8395-50.026 6.2533-19.737-.3909-38.497-4.8854-54.9119-16.2195-10.5524-7.2304-18.95531-16.6104-24.81778-27.9445-.78166-1.3679-1.1725-2.9312-1.954159-4.4946.977079-.3908.977079.3909 1.172499.7817 12.31124 17.392 29.50774 27.1628 50.22184 31.462 16.6104 3.322 33.2207 2.5404 49.8315-.1955 11.529-1.9541 22.863-5.4716 34.393-8.2074 18.173-4.1038 36.542-6.0579 55.107-4.2992 26.381 2.5404 50.222 11.5296 70.936 28.7261.391.3909.782.7817 1.172 1.1725 0-.1954 0 0 0 .3909z" fill="#0054b4"/><path d="m167.341 54.4347c5.667-4.1037 7.816-9.3799 6.253-16.0241-1.564-6.6441-7.426-10.7478-14.461-10.7478-6.253.1954-11.529 4.8854-12.897 11.5295-1.368 6.4487 1.954 13.0929 7.816 16.0241.586.3908 1.173.3908 1.954.7817-1.172.7816-2.54.5862-3.713.7816-4.494.7817-8.989 1.3679-13.483 2.5404-1.173.3909-1.564-.1954-2.15-.977-12.116-17.1966-1.954-40.6465 18.565-43.9686 15.047-2.345 28.53 6.4487 32.243 20.5187 1.759 6.2533 1.173 12.702-1.368 18.7599-.39.9771-.781 1.3679-1.954 1.3679-4.69-.1954-9.38 0-13.874 0-1.173-.1954-2.15.5862-2.931-.5863z" fill="#fe0000"/><path d="m56.7351 13.7883h9.5754c1.1725 0 1.7587.1954 1.5633 1.5633-.3908 7.6212-5.4716 12.3112-13.0929 12.3112-1.3679 0-2.7358 0-4.1037 0-7.8166 0-14.2653 6.2533-14.2653 14.2653 0 8.0121 6.2533 14.2654 14.2653 14.2654h5.8625c6.2533.3908 11.5295 6.2533 11.1387 12.702-.1954 1.3679-1.1725.9771-1.5634.7817-5.0808-.3909-10.1616-.9771-15.2424-1.9542-7.2304-1.5633-14.4607-4.1037-21.3003-7.2304-1.1725-.3908-1.9542-1.1725-2.5404-2.1495-12.3112-16.6104-1.5633-41.4282 18.9553-44.164 3.9083-.3908 7.6212-.1954 10.7479-.3908z" fill="#fe0000"/><path d="m238.276 68.3093c-7.035-3.3221-14.265-6.2533-21.691-8.4029-6.253-1.7587-12.311-3.1266-18.76-3.9083-1.172-.1954-1.758-.5863-2.149-1.5633-1.759-3.3221-2.736-6.8396-2.736-10.5525-.196-13.8745 0-27.9444-.196-42.01438 0-1.172494.391-1.367911 1.564-1.367911 7.426.390832 12.897 5.667061 12.897 13.092891v27.5536c0 8.7937 6.058 14.8516 14.852 14.8516 2.54 0 5.081-.3908 7.621.3908 5.081 1.7588 8.598 6.4487 8.598 11.9204z" fill="#fe0000"/><g fill="#0054b4"><path d="m249.415 45.8365c0-.5863 0-1.1725 0-1.9542-.195-3.1266 1.173-5.2762 3.713-6.6441s5.276-1.1725 7.621.7817c.782.5862 1.173.3908 1.954-.1955 2.345-1.7587 4.886-1.9541 7.426-.5862 2.541 1.3679 3.908 3.7129 3.908 6.6441v5.0808c0 1.368-.586 1.368-1.563.9771-1.368-.5862-1.954-1.5633-1.954-3.1266 0-1.1725 0-2.345 0-3.3221 0-2.1496-1.368-3.5175-3.322-3.7129s-3.518 1.3679-3.518 3.5175c-.195 1.9541 0 3.9083 0 5.667 0 1.1725-.39 1.1725-1.367.9771-1.368-.3908-2.15-1.3679-2.15-2.9312 0-1.3679 0-2.7358-.195-4.1037-.196-1.9542-1.759-3.3221-3.323-3.3221-1.954 0-3.322 1.3679-3.322 3.3221v3.322c0 1.1725-.39 1.9542-1.172 2.7358-.586.3909-1.173.9771-1.954.7817-.977-.3908-.391-1.1725-.391-1.7587-.391-.3909-.391-1.3679-.391-2.1496z"/><path d="m237.495 45.8365c0-.9771 0-1.7588 0-2.5404.195-3.7129 2.931-6.4487 6.448-6.8396.977 0 1.955-.1954 2.736 0 .586 0 1.564-.3908 1.759.3909.195.7816-.195 1.3679-.782 1.9541-.781.7817-1.758.7817-2.54.9771-3.127.1954-4.104 1.1725-4.299 4.4946v3.1266c0 .9771-.391 1.7588-1.173 2.345-.586.3908-1.368.9771-1.954.5862-.586-.3908-.391-1.1724-.391-1.7587.196-.9771.196-1.9542.196-2.7358z"/><path d="m245.702 41.7328h1.173c.586.1954 1.758-.3909 1.954.3908.195.7817-.391 1.7587-1.173 2.345-1.563.9771-3.322.7816-4.885.3908-.782-.1954-.782-.9771-.782-1.7587.196-.7817.586-1.1725 1.368-1.1725.782-.3909 1.564-.1954 2.345-.1954z"/></g><path d="m167.34 54.4348c.978.7816 1.955 0 2.932.3908-1.173.3908-2.541.1954-4.104.3908.391-.5862.586-.7816 1.172-.7816z" fill="#fe0000"/><path clip-rule="evenodd" d="m115.555 64.7918c7.426-5.8625 11.53-13.2882 11.53-24.2315 0-12.5066-10.553-24.427-24.818-26.1857-14.0699-1.9542-27.7491 7.0349-31.2665 20.714-3.5175 14.07 3.7129 28.3353 17.392 33.6115 1.7587.5863 3.1266.9771 5.0808.5863 6.8397-.9771 13.6787-2.1496 20.3237-3.7129.781-.1954 1.367-.3908 1.758-.7817zm-17.0009-8.4029c7.8169 0 14.0699-6.4487 14.0699-14.2653 0-8.0121-6.253-14.2654-13.8745-14.4608-7.8166 0-14.0699 6.4487-14.0699 14.4608 0 8.012 6.0579 14.2653 13.8745 14.2653z" fill="#fe0000" fill-rule="evenodd"/></svg>