<svg viewBox="0 0 1000 1000" xmlns="http://www.w3.org/2000/svg" xmlns:xlink="http://www.w3.org/1999/xlink"><linearGradient id="a" gradientTransform="matrix(.15556349 .15556349 -.15556349 .15556349 6760.87 -630.71)" gradientUnits="userSpaceOnUse" x1="-17768.93" x2="-14300.79" y1="22502.59" y2="22502.59"><stop offset=".1" stop-color="#7e5436"/><stop offset=".27" stop-color="#be7429"/><stop offset=".43" stop-color="#ebbc20"/><stop offset=".55" stop-color="#f1e794"/><stop offset=".7" stop-color="#f1e794"/><stop offset=".85" stop-color="#e0b01c"/></linearGradient><linearGradient id="b" gradientTransform="matrix(-.12207883 -.14559107 .14559107 -.12207883 8468.84 2018.07)" x1="31480.17" x2="34948.39" xlink:href="#a" y1="-28106.88" y2="-28106.88"/><linearGradient id="c" gradientUnits="userSpaceOnUse" x1="1057.723" x2="1127.147" y1="597.4676" y2="597.4676"><stop offset=".2" stop-color="#ebb625"/><stop offset=".4" stop-color="#f7e864"/><stop offset=".66" stop-color="#ebb625"/></linearGradient><linearGradient id="d" gradientTransform="matrix(.0068404 -.01879385 .01879385 .0068404 7563.38 901.1)" gradientUnits="userSpaceOnUse" x1="-87047.18" x2="-83579.51" y1="-288336.19" y2="-288336.19"><stop offset=".22" stop-color="#ebb625"/><stop offset=".47" stop-color="#f7e864"/><stop offset=".77" stop-color="#ebb625"/></linearGradient><linearGradient id="e" gradientTransform="matrix(.06 -.03 .03 .06 7242.62 965.75)" gradientUnits="userSpaceOnUse" x1="-90378.44" x2="-86910.71" y1="-59035.49" y2="-59035.49"><stop offset=".15" stop-color="#ebb625"/><stop offset=".3" stop-color="#f7e864"/><stop offset=".5" stop-color="#ebb625"/><stop offset=".75" stop-color="#f0d661"/><stop offset="1" stop-color="#ebb625"/></linearGradient><linearGradient id="f" gradientTransform="matrix(.03622867 -.01695533 .01695533 .03622867 7343.72 884.53)" gradientUnits="userSpaceOnUse" x1="-176448.54" x2="-172980.75" y1="-90928.53" y2="-90928.53"><stop offset=".23" stop-color="#ebb625"/><stop offset=".47" stop-color="#f7e864"/><stop offset=".67" stop-color="#ebb625"/></linearGradient><linearGradient id="g" gradientTransform="matrix(.05197199 -.02998186 .02998186 .05197199 7317.5 956.93)" x1="-97023.62" x2="-93555.82" xlink:href="#e" y1="-63004.64" y2="-63004.64"/><linearGradient id="h" gradientTransform="matrix(.02600168 -.01496371 .01496371 .02600168 7566.67 858.16)" gradientUnits="userSpaceOnUse" x1="-180018.62" x2="-176550.77" y1="-115069.58" y2="-115069.58"><stop offset=".07" stop-color="#ebb625"/><stop offset=".33" stop-color="#f7e864"/><stop offset=".53" stop-color="#ebb625"/></linearGradient><linearGradient id="i" gradientTransform="matrix(.04 -.02 .02 .04 7486.81 939.47)" gradientUnits="userSpaceOnUse" x1="-137873.51" x2="-134405.71" y1="-87615.8" y2="-87615.8"><stop offset=".57" stop-color="#e6bc2a"/><stop offset=".75" stop-color="#f5e479"/><stop offset=".93" stop-color="#e6bc2a"/></linearGradient><linearGradient id="j" gradientTransform="matrix(.06061567 -.03501058 .03501058 .06061567 7369.67 992.08)" gradientUnits="userSpaceOnUse" x1="-78888.34" x2="-75420.16" y1="-51870.46" y2="-51870.46"><stop offset=".3" stop-color="#ebb625"/><stop offset=".55" stop-color="#f7e864"/><stop offset=".8" stop-color="#ebb625"/></linearGradient><linearGradient id="k" gradientTransform="matrix(.02600429 -.01495917 .01495917 .02600429 7643.68 858.07)" gradientUnits="userSpaceOnUse" x1="-191509.77" x2="-188041.58" y1="-122015.13" y2="-122015.13"><stop offset=".2" stop-color="#ebb625"/><stop offset=".57" stop-color="#f7e864"/><stop offset=".95" stop-color="#ebb625"/></linearGradient><path d="m9 82.88h982v834.25h-982z" fill="#138f34"/><path d="m932.06 407.45a241.9 241.9 0 0 0 -5.06-68.58 168.14 168.14 0 0 0 -24.76-57.78c-12.91-18.2-27.51-32.38-43.81-43a166.79 166.79 0 0 0 -52.28-22 219 219 0 0 0 -56.52-5.5 318.68 318.68 0 0 0 -56.72 6.56 426.19 426.19 0 0 0 -52.7 14.18 468.69 468.69 0 0 0 -44.45 17.14c-13.12 5.72-23.92 11-32.39 15.67-26.24 14.18-49.31 24.55-69.42 31.11s-37.46 10.16-51.86 10.58c-14.6.43-26.88-1.27-36.61-5.29a56.91 56.91 0 0 1 -22.86-16.51 63.39 63.39 0 0 1 -11.45-23.03 74.86 74.86 0 0 1 -2.12-24.55l-5.71 24.34a67.14 67.14 0 0 0 3.59 21.8 65.87 65.87 0 0 0 12.07 21c5.5 6.56 12.91 12.06 22.43 16.51 9.32 4.65 20.75 7.4 34.29 8.67 13.76 1.48 30.06.64 48.69-2.32s40.21-8.9 64.34-17.36l29.42-11c11.85-4.44 25.19-9.1 40.21-13.76a414.25 414.25 0 0 1 47.62-12.13 297 297 0 0 1 51.64-5.08 200.25 200.25 0 0 1 52.28 6.56 154.74 154.74 0 0 1 49.32 22.65c15.66 10.79 30.06 25.4 43 44a177.28 177.28 0 0 1 27.09 61 209 209 0 0 1 5.29 68.16 267.68 267.68 0 0 1 -15.66 70.06 288 288 0 0 1 -35.16 66.65 299.1 299.1 0 0 1 -52.91 58.42c-20.53 17.78-43.82 32.59-69.64 45.08a326.07 326.07 0 0 1 -84.87 26.46l-8.26 27.3a324.08 324.08 0 0 0 83.82-27.3 351.38 351.38 0 0 0 72.39-47 389.11 389.11 0 0 0 59.47-61.38 441.29 441.29 0 0 0 75.35-145.78 354.79 354.79 0 0 0 12.91-74.55z" fill="url(#a)"/><path d="m577.11 674.78c-11-3-24.13-4-39.16-3.39s-32.17 3.6-51.64 8.68c-19.47 5.29-41.49 13.33-65.83 24.13-10.37 4.86-23.07 9.31-37.67 13.75a432.18 432.18 0 0 1 -47.81 10.8 333.43 333.43 0 0 1 -52.91 3.6 230.06 230.06 0 0 1 -53.76-7.2 164.32 164.32 0 0 1 -49.11-21.8q-22.86-15.24-40-40.64c-11.43-16.93-20.11-37.89-26-63.07a242.7 242.7 0 0 1 -4.87-81.7 262.48 262.48 0 0 1 20.53-77.05 312.84 312.84 0 0 1 40.42-68.36 330 330 0 0 1 55.88-55.46 288.11 288.11 0 0 1 66.25-38.73 237.63 237.63 0 0 1 71.27-17.34l5.72-24.34c-23.08 4-45.72 11.22-68.37 21.17a387.08 387.08 0 0 0 -65.61 37.88 440.94 440.94 0 0 0 -59.27 51.86 430.71 430.71 0 0 0 -49.53 62.65 377.63 377.63 0 0 0 -36.19 70.7 329.64 329.64 0 0 0 -19.68 75.77 270 270 0 0 0 1 78.31c4 26.25 11.43 48.9 22 67.52a154.8 154.8 0 0 0 38.31 46.57 164.45 164.45 0 0 0 49.31 27.73 213 213 0 0 0 55.25 11.85 279.26 279.26 0 0 0 56.51-1.27 284.55 284.55 0 0 0 52.49-11.64 230.52 230.52 0 0 0 43.6-18.84q47.31-27.63 84-42.33c24.55-10 45.93-16.09 64.35-19.05 18.2-2.75 33.44-2.75 45.93 0 12.48 2.54 22.22 7.41 29.42 14a51.27 51.27 0 0 1 14.39 24.34c2.54 9.31 2.75 19.26 1.06 29.63l8-27.09a50.17 50.17 0 0 0 -2.39-15.71 64.07 64.07 0 0 0 -9.74-17.78 73.36 73.36 0 0 0 -18.2-16.72c-7.42-4.87-16.94-8.68-27.95-11.43z" fill="url(#b)"/><path d="m666.64 272.2a412.63 412.63 0 0 0 -47.64 11.85c-15 4.87-28.36 9.53-40.22 14l-29.2 11c-24.35 8.46-45.93 14.18-64.56 17.14-18.63 3.18-34.92 3.81-48.68 2.54-13.55-1.27-25-4.23-34.5-8.67q-14-6.68-22.23-16.51a64.17 64.17 0 0 1 -12.06-21 73.33 73.33 0 0 1 -3.6-21.8 231.49 231.49 0 0 0 -71.33 17.36 289.1 289.1 0 0 0 -66 38.52 323.35 323.35 0 0 0 -55.87 55.66 300.89 300.89 0 0 0 -40.64 68.37 274.5 274.5 0 0 0 -20.53 77 243.07 243.07 0 0 0 4.87 81.71c5.92 25.18 14.6 46.14 26 63.07s24.76 30.48 40 40.43a161.1 161.1 0 0 0 49.32 22 240 240 0 0 0 53.55 7.19 311.9 311.9 0 0 0 53.13-3.8 411 411 0 0 0 47.83-10.59c14.39-4.44 27.09-8.89 37.46-13.76 24.34-10.79 46.36-18.83 65.83-24.12 19.47-5.08 36.83-8.05 51.65-8.68 15.23-.64 28.15.42 39.15 3.38a87.92 87.92 0 0 1 28.16 11.51c7.41 5.08 13.55 10.59 18 16.51a55.69 55.69 0 0 1 9.74 18 49.8 49.8 0 0 1 2.73 15.65 321.14 321.14 0 0 0 84.88-26.67c25.82-12.28 49.1-27.09 69.63-44.87a312.32 312.32 0 0 0 52.92-58.42 281 281 0 0 0 35.13-66.89 263.79 263.79 0 0 0 15.66-69.84 214.93 214.93 0 0 0 -5.07-68.16 184.94 184.94 0 0 0 -27.31-61.17c-12.91-18.41-27.3-33-43-43.81a160.12 160.12 0 0 0 -49.31-22.86 200.05 200.05 0 0 0 -52.28-6.35 297 297 0 0 0 -51.61 5.08z" fill="#fff"/><g fill="#f00"><path d="m729.3 329.35h-6.57a4.34 4.34 0 0 0 -4.44 4.44v17.15h-3.39a3.36 3.36 0 0 0 -2.11 1.05 2.74 2.74 0 0 0 -1.06 2.33v4.45a2.73 2.73 0 0 0 1.06 2.33 5.12 5.12 0 0 0 2.11 1.06h3.39v27.93a18.83 18.83 0 0 0 2.33 9.11 15.53 15.53 0 0 0 6.56 6.77 21.06 21.06 0 0 0 10 2.75h6.13l2.33-1.06 1.06-2.54v-5.12c0-1.06-.21-1.9-1.06-2.33-.42-.84-1.27-1-2.33-1h-.84a10.32 10.32 0 0 1 -6.56-2.54 8.33 8.33 0 0 1 -2.12-6.14v-25.83h10.11a4.08 4.08 0 0 0 2.33-1.06 3.41 3.41 0 0 0 .84-2.33v-4.45a3.23 3.23 0 0 0 -3.17-3.38h-10.16v-17.15a5.56 5.56 0 0 0 -1.48-3.17 3.56 3.56 0 0 0 -2.96-1.27z"/><path d="m766.12 333.79a4.27 4.27 0 0 0 -1.27-3.17 4.76 4.76 0 0 0 -3.38-1.27h-6.56a4.79 4.79 0 0 0 -3.39 1.27 4.27 4.27 0 0 0 -1.27 3.17v70.27a3.82 3.82 0 0 0 1.48 3.18 4.35 4.35 0 0 0 3.18 1.27h6.56a4.81 4.81 0 0 0 3.38-1.27 4.31 4.31 0 0 0 1.27-3.18z"/><path d="m784.11 353.48a26.27 26.27 0 0 0 -9.94 11 33.18 33.18 0 0 0 .21 29.64 27.33 27.33 0 0 0 10.16 11.21c4.23 3 9.52 4.24 15.45 4.45a36.72 36.72 0 0 0 11.85-2.12 26.66 26.66 0 0 0 9.74-5.93 17 17 0 0 0 5.08-9.1 3.06 3.06 0 0 0 -.43-2.32 2.31 2.31 0 0 0 -2.11-1.06h-8.89a4.16 4.16 0 0 0 -3.6 1.9c-2.54 3.81-6.35 5.72-11.64 5.72a13.6 13.6 0 0 1 -9.53-4 14.57 14.57 0 0 1 -4-8.89h37.47c3.38 0 5.08-1.7 4.86-4.87a38.25 38.25 0 0 0 -3-14.61 25.13 25.13 0 0 0 -9.52-11c-4.24-3-9.74-4.45-16.3-4.45q-9.51-.05-15.86 4.43zm6.78 10.79a13.28 13.28 0 0 1 9.1-3.17 13.1 13.1 0 0 1 8.89 3.17 12.82 12.82 0 0 1 4.44 8.26h-26.67a11.75 11.75 0 0 1 4.24-8.26z"/><path d="m855.44 395a8.25 8.25 0 0 0 -6.77-2.75 8.49 8.49 0 0 0 -6.56 2.75 9.13 9.13 0 0 0 -2.54 6.56 8.49 8.49 0 0 0 2.75 6.56 9.18 9.18 0 0 0 13.12 0 9.63 9.63 0 0 0 2.75-6.56 8.91 8.91 0 0 0 -2.75-6.56zm-6.77-1.27a7.07 7.07 0 0 1 5.71 2.33 7.31 7.31 0 0 1 2.33 5.5 8.05 8.05 0 0 1 -2.33 5.51 8.22 8.22 0 0 1 -11 0 7.7 7.7 0 0 1 -2.33-5.51 7.35 7.35 0 0 1 2.33-5.5 6.8 6.8 0 0 1 5.29-2.37z"/><path d="m849.31 396.23-4 .21v10.38h1.69v-4.82h1.69l2.75 4.87 1.7-.22-2.76-4.87c1.7 0 2.54-.84 2.54-2.75-.02-1.74-1.08-2.8-3.61-2.8zm-2.54 1.7 2.54-.22c1.48 0 2.11.43 2.11 1.27 0 1.06-.63 1.49-2.11 1.49h-2.31z"/><path d="m645.69 353.48q-6.34-4.48-16.51-4.48-9.52 0-15.87 4.45a25.81 25.81 0 0 0 -9.74 11 33.18 33.18 0 0 0 .21 29.64 27.33 27.33 0 0 0 10.16 11.21c4.23 3 9.31 4.24 15.24 4.45a38 38 0 0 0 12.06-2.12 26.58 26.58 0 0 0 9.74-5.93 17 17 0 0 0 5.08-9.1 3.1 3.1 0 0 0 -.42-2.32 2.34 2.34 0 0 0 -2.12-1.06h-8.89a4.28 4.28 0 0 0 -3.81 1.9c-2.33 3.81-6.35 5.72-11.64 5.72a14 14 0 0 1 -9.52-4 13.26 13.26 0 0 1 -3.82-8.89h37.47c3.39 0 5.08-1.7 4.87-4.87a38.26 38.26 0 0 0 -3-14.61 26.55 26.55 0 0 0 -9.49-10.99zm-25.4 10.79a12.74 12.74 0 0 1 8.89-3.17 13.65 13.65 0 0 1 9.1 3.17 12.87 12.87 0 0 1 4.45 8.26h-26.89a12.87 12.87 0 0 1 4.45-8.26z"/><path d="m709.19 338.45v-4.87a3.53 3.53 0 0 0 -1.06-2.54l-2.33-1.04h-121.28a6.94 6.94 0 0 0 -3.6 1.48 5.38 5.38 0 0 0 -1.27 3.6l.21 47.63-27.3-49.53a10.74 10.74 0 0 0 -3.18-3 10.23 10.23 0 0 0 -4.86-1.48h-9.95a4.25 4.25 0 0 0 -3.39 1.48 4.64 4.64 0 0 0 -1.48 3.6v69.85a5 5 0 0 0 1.48 3.6 4.85 4.85 0 0 0 3.39 1.27h6.35a5 5 0 0 0 3.6-1.27 5 5 0 0 0 1.48-3.6l-.42-49.1 27.51 49.52 3.18 3.18a8.09 8.09 0 0 0 4.65 1.27h9.08a5.38 5.38 0 0 0 3.6-1.27 5 5 0 0 0 1.48-3.6v-61.8h110.72a3.21 3.21 0 0 0 2.33-.85 3.53 3.53 0 0 0 1.06-2.53z"/><path d="m698 367.23 2.54.22h7.2a3.46 3.46 0 0 0 1.9-.64 2.6 2.6 0 0 0 .64-1.9c0-4.24-2.33-7.83-6.78-11s-10.19-4.91-17.38-4.91c-7.41 0-13.55 1.7-17.78 4.87a15.87 15.87 0 0 0 -6.56 13.33 13.31 13.31 0 0 0 4.22 10.41 26.13 26.13 0 0 0 10.79 5.5l13.34 3.39a13.58 13.58 0 0 1 4.44 1.48 3.8 3.8 0 0 1 1.91 3.38 4.87 4.87 0 0 1 -3 4.66 18.82 18.82 0 0 1 -7.19 1.48 15.48 15.48 0 0 1 -7-1.69 8.27 8.27 0 0 1 -4.23-4.23 3.36 3.36 0 0 0 -1.9-1.91l-2.76-.42h-7.4a2.2 2.2 0 0 0 -1.7.84 2.08 2.08 0 0 0 -.84 1.91v1.06a11.59 11.59 0 0 0 3.17 7.83 27.78 27.78 0 0 0 9.31 6.35 42.7 42.7 0 0 0 13.34 2.54 36 36 0 0 0 11.43-1.91 20.24 20.24 0 0 0 10-5.71c2.75-2.75 4.23-6.56 4.44-11.22a16.72 16.72 0 0 0 -4-10.58c-2.54-2.75-6.14-4.66-10.58-5.93l-18.42-5.08a3.72 3.72 0 0 1 -1.9-3.17 4.55 4.55 0 0 1 2.54-4.45 14.22 14.22 0 0 1 6.35-1.27 12.15 12.15 0 0 1 6.56 1.48 6.05 6.05 0 0 1 4 3.81 2.27 2.27 0 0 0 1.3 1.48z"/><path d="m774.59 335.7v3.38a2.72 2.72 0 0 0 2.54 2.54h46.35a4.67 4.67 0 0 0 2.75-1.27 3.48 3.48 0 0 0 1.06-2.54v-5.71a4.41 4.41 0 0 0 -1.06-2.75 2.91 2.91 0 0 0 -2.75-1.06l-46.35 4.44-1.9 1.06a3.39 3.39 0 0 0 -.64 1.91z"/></g><path d="m322.7 553.71 10.37-35.35-78.07 103.08 8 11v-.21z" fill="url(#c)"/><path d="m278.67 417.19-7.62-10.59 18.42 91.65 4.44-5.71z" fill="url(#d)"/><path d="m442.5 417-8.05-10.58-54.18 186.23c-2.54 8.89-6.35 15-11.22 18.63s-11.85 5.29-20.95 5.08h-43.82l9.11 10.16h43.17a44.73 44.73 0 0 0 16.94-2.52c4.44-1.7 7.83-4.66 11-9.1 2.75-4 5.29-9.74 7.2-17.15z" fill="url(#e)"/><path d="m238.88 542.28-4.44-22.86-21.38 73.23c-2.54 8.89-6.14 15-11.22 18.63-4.87 3.38-11.85 5.29-20.74 5.08h-40.64l8.68 10.16h40.64a44.94 44.94 0 0 0 16.08-2.12 21.06 21.06 0 0 0 10.37-8.47 57.5 57.5 0 0 0 7-16.72z" fill="url(#f)"/><path d="m366.93 407.66a32.66 32.66 0 0 0 -11.43 5.93 75.08 75.08 0 0 0 -9.73 10.16l-56.3 74.5-18.63-92.49h-38.94q-12.39 0-20.32 3.81a28.43 28.43 0 0 0 -12.91 11 57.8 57.8 0 0 0 -8 18.21l-50.21 177.58h40.64c8.89.21 15.87-1.48 20.74-5.08 5.08-3.6 8.68-9.74 11.22-18.63l21.38-73.23 20.56 102.23 78.1-103.29-28.79 98h43.79q13.33.32 20.95-5.08c4.87-3.6 8.68-9.74 11-18.63l54.61-186.89h-51a62.76 62.76 0 0 0 -16.73 1.9z" fill="#705341"/><path d="m531.18 436.66-7-9.74-48.45 166.16c-2.33 8.88-6.14 15-11 18.62-5.08 3.6-11.85 5.29-21 5.08h-44l8.47 10.37h42.12a54.9 54.9 0 0 0 15.68-2.15 25.6 25.6 0 0 0 10.8-7.41c3-3.6 5.07-8.26 7-14.18z" fill="url(#g)"/><path d="m481.23 426.5a46.89 46.89 0 0 0 -15.23 1.9 21.49 21.49 0 0 0 -10.37 7.41c-2.75 3.18-5.08 8.05-6.77 14.18l-49.12 166.79h44c9.1.21 15.87-1.48 21-5.08 4.87-3.6 8.47-9.74 11-18.62l48.67-166.58z" fill="#705341"/><path d="m626.85 435.81-8.47-9.95-43.38 149.01h11z" fill="url(#h)"/><path d="m640.82 602.6 5.72-21.17-8.26-6.77-5.28 17.78q-3.5 13-11.43 18.41c-5.29 3.6-12.49 5.3-21.8 5.08h-105.84l8.26 10.38h105.4c6.35 0 11.64-.64 15.88-2.12a25.33 25.33 0 0 0 10.79-7.41c2.74-3.39 4.87-8.25 6.56-14.18z" fill="url(#i)"/><path d="m549.81 434.75c-3 3.6-5.29 8.26-7 14.4l-48.88 166.78h106.07c9.1.22 16.51-1.48 21.59-5.08 5.29-3.59 9.1-9.73 11.64-18.41l5.08-17.78h-63.31l43.39-149h-43.18a50.9 50.9 0 0 0 -15 1.91 24.19 24.19 0 0 0 -10.4 7.18z" fill="#705341"/><path d="m826 452.11a72.09 72.09 0 0 0 -19.47-16.3 83.9 83.9 0 0 0 -25.19-9.52c14.18 3.6 25.83 9.31 34.93 17.57s15 18.83 18 32.17 2.11 29.21-2.12 48a176.31 176.31 0 0 1 -13.33 39.16 106.85 106.85 0 0 1 -19.26 27.09 98.44 98.44 0 0 1 -24.56 17.61 146.26 146.26 0 0 1 -29.42 10.37l-14.58 2.12-18.63.63-18-1.27a125 125 0 0 1 -19.47-4.44 64.69 64.69 0 0 1 -16.3-7.83 50.71 50.71 0 0 1 -13.12-12.91 57.26 57.26 0 0 0 10.58 16.08 69.88 69.88 0 0 0 21.17 12.49 124.85 124.85 0 0 0 25 7l18 1.26 18.63-.63 14.39-2.33a126.9 126.9 0 0 0 29.42-10.37 93.37 93.37 0 0 0 24.56-17.57 103.23 103.23 0 0 0 19.26-27.09 182.93 182.93 0 0 0 13.51-39.17c3.6-16.51 4-32 1.48-45.93s-7.63-26.24-15.48-36.19z" fill="url(#j)"/><path d="m753.42 477.3a27.41 27.41 0 0 1 10.16 1.7 14.82 14.82 0 0 1 6.56 4.66 18.79 18.79 0 0 0 -6.77-12.07c-3.81-2.75-9.31-4.44-17.14-4.44a34.41 34.41 0 0 0 -18 4.65 35.22 35.22 0 0 0 -12.7 12.28c-3.6 4.87-6.35 10.79-8.89 17.14a205.53 205.53 0 0 0 -6.14 20.32 142.48 142.48 0 0 0 -4.23 21.59c-1.06 7.2-.85 13.34.42 18.42 1.27 5.5 4.44 9.31 9.52 12.06a20 20 0 0 1 -3.38-11 70.15 70.15 0 0 1 1.27-14.18l3.81-16.73a184.91 184.91 0 0 1 5.92-20.1 91.55 91.55 0 0 1 8.9-17.6 43.14 43.14 0 0 1 12.7-12c5.08-3 11.01-4.49 17.99-4.7z" fill="url(#k)"/><path d="m765.06 423.11-27.06-.63-14 1.52a150.76 150.76 0 0 0 -26.24 7 94.07 94.07 0 0 0 -25.4 14c-7.83 6.35-15 14.82-21.38 25.4-6.56 10.59-11.43 24.13-15.45 40.43-5.71 26-5.71 47.62.21 64.34l.85 2.76c3.6 9.52 8.25 17.14 13.76 22.64a56.76 56.76 0 0 0 19.47 12.91 101.13 101.13 0 0 0 24.55 6.35l18 1.27 18.63-.63 14.6-2.12a134.81 134.81 0 0 0 29.4-10.67 92.54 92.54 0 0 0 24.56-17.36 106.85 106.85 0 0 0 19.26-27.09 176.31 176.31 0 0 0 13.33-39.16c4.66-21 5.08-38.73.85-52.7a57.52 57.52 0 0 0 -23.71-33c-11.63-7.85-26.23-12.93-44.23-15.26zm-1.69 48.68c3.81 2.76 6.14 7 7 12.28a52.73 52.73 0 0 1 -.43 17.14 194.17 194.17 0 0 1 -4.44 20.32 123.44 123.44 0 0 1 -6.78 20.11 83.47 83.47 0 0 1 -9.72 17.78 49.84 49.84 0 0 1 -12.7 12.28 32.39 32.39 0 0 1 -16.09 4.65c-7.62-.21-13.33-1.69-17.14-4.65a18.4 18.4 0 0 1 -6.77-12.28 62.06 62.06 0 0 1 0-17.78c1.05-6.35 2.54-13.12 4.23-20.11a175.62 175.62 0 0 1 6.14-20.32 68.55 68.55 0 0 1 8.67-17.14 37.62 37.62 0 0 1 12.92-12.28 34.41 34.41 0 0 1 18-4.65c7.8 0 13.51 1.69 17.11 4.65z" fill="#705341"/></svg>