<svg viewBox="0 0 1000 1000" xmlns="http://www.w3.org/2000/svg"><g fill-rule="evenodd"><g fill="#eb1c24"><path d="m310.89 713.67c17.94.11 34.75 1.83 50.75 7.66a81 81 0 0 1 23.43 12.91 59.13 59.13 0 0 1 20 30.18 76.78 76.78 0 0 1 .23 41.58c-5.14 18.86-17.49 31.55-34.63 40-11.32 5.48-23.32 8.46-35.67 9.94a184.56 184.56 0 0 1 -45.6 0c-14.29-1.71-28.24-5.26-40.81-12.46-19.55-11.2-30.41-28-32.46-50.64a76.5 76.5 0 0 1 2.51-27.84c4.92-17.14 15.77-29.49 31.21-38.06 12.15-6.64 25.26-9.94 38.75-11.79 7.77-1 15.54-1.25 22.29-1.48m2.74 110.33a76.53 76.53 0 0 0 19.43-2.18c19.55-4.57 29.38-17 29.15-36.8-.23-18.29-9.14-30-26.86-35-11.89-3.32-23.89-3.32-36-2.17a52.48 52.48 0 0 0 -18.52 5c-9.6 4.68-15.77 12.11-17.94 22.63a50.44 50.44 0 0 0 -1 9.37c-.69 18.52 8.57 31.09 26.4 36.24 7.71 2.31 15.71 2.91 25.34 2.91"/><path d="m136.45 675.72h95.11a28.77 28.77 0 0 0 3.08 0c1.72-.12 2.4.57 2.4 2.28-.11 9.84 0 19.78 0 29.61 0 1.6-.57 2.17-2.17 2.06a26.37 26.37 0 0 0 -3.08 0h-66.87a29 29 0 0 1 -3.09 0c-1.49-.12-2.29.34-2.17 2.06.11 1.14 0 2.4 0 3.54v135c0 5.83.68 5.48-5.37 4.8-10.64-1.26-20.81-4-29.95-9.61-9.61-5.82-16.35-13.83-18.86-25a48.18 48.18 0 0 1 -.92-10.74v-95.14c0-5.48.57-4.91-4.68-4.91h-59.67a28.47 28.47 0 0 0 -3.2 0c-1.6.11-2.18-.57-2.06-2.06.11-1.71 0-3.31 0-5v-22.89c0-4 0-4 4.11-4z"/><path d="m789 854a20.16 20.16 0 0 1 -2.28.23c-13.15 0-26.29-.12-39.55.11-2.63 0-3.55-.8-4-3.43-1.6-8.11-4.46-15.77-7.55-23.43-.91-2.17-2.06-2.86-4.34-2.86q-46.47.18-92.93 0c-2.29 0-3.55.69-4.35 2.86a164.05 164.05 0 0 0 -7.54 23c-1 4.69-.57 3.78-4.46 3.78-13.6.11-27.21 0-40.92 0a5.32 5.32 0 0 1 .11-3.55c3.32-16.57 9.95-31.89 18.18-46.52 14.51-25.49 32.69-48.24 53-69.27 4.57-4.8 9.6-9 14.28-13.6 8.46-8.46 28.12-7.66 36.12-.23a417.4 417.4 0 0 1 34.07 35.66c14.52 17.38 27.55 35.67 38 55.9a148.87 148.87 0 0 1 14.06 39.55c.11.57 0 1.14.11 1.83m-70.75-58.3a274.45 274.45 0 0 0 -31.78-39.09c-1.6-1.6-2.4-.69-3.54.34a237.93 237.93 0 0 0 -30.18 36.69c-.34.58-1 1.15-.57 2.06z"/><path d="m503.61 717.21h77.61a26.54 26.54 0 0 0 3.09 0c2.28-.23 2.74.92 2.74 3-.11 6.52 0 13.15 0 19.78 0 2.63 1.26 5.83-.68 7.66-1.72 1.6-4.92.46-7.32.57-15.09.11-30.29 0-45.38 0-4.69 0-4.23-.34-4.23 4.46v87.44c0 7.32-1.83 10.29-8.91 12.69a51.33 51.33 0 0 1 -33.84-.11c-6.74-2.4-8.46-5.26-8.46-12.46v-87c0-5.14.57-4.92-4.68-4.92h-49.84c-3.32-.11-3.32-.11-3.32-3.65v-10.31c0-4.8.12-9.6 0-14.4 0-2 .69-2.75 2.63-2.63a29 29 0 0 0 3.09 0h77.5z"/><path d="m920 854.27c-16.35 0-32.58.57-48.92-.92a145.86 145.86 0 0 1 -25.08-4.23c-19.78-5.37-31-18.63-35.21-38.29a89.29 89.29 0 0 1 -1.83-18.29v-63.21c0-6.4 1.83-9.26 7.89-11.43 7.31-2.75 14.86-3.2 22.52-2.4a42.41 42.41 0 0 1 10.51 2.28c6.12 2.52 8.12 5.22 8.12 11.89v61c0 4.46 0 9 1.14 13.38 1.83 7.43 6.18 12.46 13.38 15a51.21 51.21 0 0 0 17.6 3c23.09.12 46.07.12 69.16.12 6.63 0 5.71-.92 5.83 5.6v23.32c0 3.08-.12 3.08-3.21 3.08-14.05.12-28 .12-41.83.12"/><path d="m574.61 297.66a216.43 216.43 0 0 0 -27.32-11.09 483 483 0 0 0 -87.78-21.49 361.38 361.38 0 0 0 -72.93-3.65c-21.72 1.25-43 5-63.21 13.37-14.52 5.94-27 14.63-36.58 27.32-.46.46-.69.91-1.14 1.37-.12.11-.58.11-.8.23-.69-1.14.11-2.06.57-3 16.69-37 41.15-67.56 75.9-89.16 20.46-12.69 42.86-20.81 66.18-26.64 26.18-6.51 52.81-8.45 79.67-7a274.35 274.35 0 0 1 43.1 5.72c1.48.34 3.08 1.14 4.8.34l-.12-.11c-.23 1.14.69.8 1.26.91 6.52 1.71 12.92 3.54 19.32 5.37 31 9.26 60 22.63 85.39 43.1.57.45 1.14 1 1.94.91h-.12a1 1 0 0 0 .92 1c8.46 7.77 16.92 15.66 24.23 24.57a177.73 177.73 0 0 1 39.67 91.27c4.23 32 .8 63.21-11.89 93-5.95 14.06-13.95 26.75-25 37.38-2.63 2.4-4.92 5.48-8.81 6.17-.11-1.49 1.15-1.94 1.95-2.74a70.32 70.32 0 0 0 7.08-8.58c11.32-15.77 13.95-33.6 12-52.35a70.84 70.84 0 0 0 -6.18-23.66c-5.71-15.57-15.1-28.6-26.71-40.15-.92-1-1.72-2.06-2.63-3-26.87-26.29-58.64-44.58-92.71-59.44"/></g><path d="m592.45 529.7c1.6 1.49 3.42.69 5.14.58a275.44 275.44 0 0 0 65.41-10.28c.46-.12.92 0 1.83-.12-1 2-2.74 2.86-4 4-16.8 14.75-35 27.55-55.09 37.5-22.64 11.08-46.3 18.51-71.33 21.37a23.88 23.88 0 0 0 -5.6 1.37c-1-.91-2.29-.68-3.43-.57-3.66.23-7.43.8-11.09.8-8.34 0-16.69.12-25-.57-7.55-.57-15.21-1.14-22.64-2.28a263.78 263.78 0 0 1 -44.69-10.41 18.49 18.49 0 0 0 -6.06-1.14c-3.2-2.17-7.09-3-10.74-4.46-33.38-13.14-63.44-31.32-88.36-57.49a160.93 160.93 0 0 1 -43.67-88.71c-1.48-9.6-2.63-19.31-2.28-29 .57-17.6 3.65-34.52 13.14-49.72 2.74-4.46 5.6-8.81 9.95-12-.46.8-.8 1.6-1.26 2.4-7 10.41-8.46 21.95-5.95 33.95 3.43 16.58 11.78 30.52 23.44 42.64 7.77 9.94 16.8 18.63 26.06 27.09a346.13 346.13 0 0 0 88.7 58.53 390 390 0 0 0 58.41 21.49c1.6.45 3.09 1.25 4.69-.12.46 2.52 2.74 2.17 4.23 2.52a423.11 423.11 0 0 0 53.61 10.17 299.77 299.77 0 0 0 32 2.51c3.2.12 6.29 0 9.38.69a6.27 6.27 0 0 0 5.26-.69" fill="#6f8ec7"/><path d="m592.45 529.7a7.41 7.41 0 0 1 -5.61.8 51.79 51.79 0 0 0 -9.37-.68c-10.74-.12-21.37-1.37-32-2.52a387.65 387.65 0 0 1 -53.61-10.17c-1.61-.34-3.78 0-4.23-2.51 4-5.61 8.45-10.86 11.88-16.81 2.63-2.86 4.46-6.28 6.52-9.6a275.51 275.51 0 0 0 16.69-30.06c5.94-10.52 10.63-21.72 15.32-32.81a580.86 580.86 0 0 0 33.83-111.22c1-5.37 1.37-11 3-16.23 34.07 14.86 65.84 33.15 92.48 59.44a34 34 0 0 1 2.63 3.09c-.23.8-.58 1.71-.8 2.51-2.18 11.66-5 23-8.23 34.29-3.55 12.23-8 24.12-12.35 36-.69 1.48-1.37 3-2.06 4.57a390.82 390.82 0 0 1 -26.2 52.21c-4 6.63-8.23 13.14-12.35 19.66-5.26 6.52-10.4 13.26-15.54 20" fill="#0b5aaa"/><path d="m309.76 407.62c-11.54-12.11-20-26.06-23.43-42.63-2.51-12-1-23.44 5.95-33.95a16.48 16.48 0 0 0 1.25-2.4c3.77-5 8.92-8.35 14.18-11.55 14.51-8.91 30.52-14.29 47.09-18.06a280 280 0 0 1 77.5-5.6 345.56 345.56 0 0 1 80 14.52c.68.23 1.48.23 2 1.37-4.11.69-8.23.57-12.23 1a325.42 325.42 0 0 0 -52.07 11.23c-30.64 8.8-60.24 20.12-88 36.24a171.21 171.21 0 0 0 -34.18 25.14 94.43 94.43 0 0 0 -18.06 24.69" fill="#fbca1d"/><path d="m662.74 234.45c-.8.23-1.37-.34-1.94-.92-25.38-20.46-54.29-33.83-85.39-43.09-6.4-1.94-12.91-3.66-19.31-5.37-.23-.57-.35-1.37-1.26-.92l.11.12c.69-1.37-.57-1.83-1.14-2.52a76 76 0 0 0 -45.15-23.54c-16-2.4-31.55-.46-47 3.54-1.6-.69-3.09 1.26-4.69 0 11.09-8.35 23.78-13.15 37.15-15.78 38.64-7.54 75.56-2.62 110.08 16.81 27.66 15.66 46.64 39.21 58.18 68.7.23.91.92 1.83.34 3" fill="#0b5aaa"/><path d="m607.88 509.47c4.11-6.51 8.34-13 12.34-19.66a384.4 384.4 0 0 0 26.18-52.24l2.06-4.46c1.37-.57 2.74-1 4.11-1.71 16.46-7.77 31.44-17.72 44-30.86a73.64 73.64 0 0 1 6.06 23.66c1.94 18.74-.69 36.46-12 52.35a102.94 102.94 0 0 1 -7.09 8.57c-.8.8-2.06 1.38-1.95 2.75v-.12c-.68 0-1 .23-1 .92-.58 0-.92.23-.92.91a1.64 1.64 0 0 0 -1.83.8 15.34 15.34 0 0 1 -5.37 3.66c-13.83 7-28.69 10.86-44 13.37a176.68 176.68 0 0 1 -20.57 2.06" fill="#fbca1d"/><path d="m415.61 570.05a21.89 21.89 0 0 1 6.06 1.15 264.94 264.94 0 0 0 44.69 10.4c7.55 1.14 15.09 1.71 22.64 2.29 8.34.57 16.69.57 25 .57 3.66 0 7.43-.57 11.09-.8 1.14-.12 2.4-.35 3.43.57-21.49 12.34-44.35 20.92-68.93 24-32.69 4.23-63.78-.34-92.13-18.17-17.83-11.2-31.32-26.18-39-46.07a7 7 0 0 1 .8-1c23.2 27.55 52.35 34.75 86.3 27.09" fill="#0b5aaa"/><path d="m522.49 458c-4.69 10.52-10.63 20.35-16.69 30.07-2.06 3.31-3.89 6.74-6.51 9.6-40.93-11.17-78.29-29.67-112.71-54.61a392 392 0 0 1 -36.12-29.49c-1.37-1.26-3.09-2.29-4-4.12l.34-.34a5 5 0 0 1 1.71.57c26.75 14.63 55.44 24.46 84.59 32.81a436.44 436.44 0 0 0 61.73 13.26 224.26 224.26 0 0 0 27.66 2.25" fill="#fbc91b"/><path d="m456.88 161.75c1.6 1.14 3.08-.69 4.68 0-1.94 1.14-4.11 1.49-6.74 2.17.34-1.48 1-2.06 2.06-2.17" fill="#00abd3"/><path d="m329.42 543.19a6.53 6.53 0 0 0 -.8 1c-1-.91-1.14-2.17-1.37-3.54a3.19 3.19 0 0 1 2.17 2.51" fill="#00abd3"/><path d="m677.83 490.27a1.54 1.54 0 0 1 1.83-.8 1.28 1.28 0 0 1 -1.83.8" fill="#ec1464"/><path d="m680.58 488.55c0-.68.34-.91 1-.91.34 1-.35 1-1 .91" fill="#ec1464"/><path d="m663.54 235.36c-.57-.11-.91-.34-.91-1 .91-.22.8.58.91 1" fill="#016794"/><path d="m346.57 409.57c-.34-.12-.91-.23-.57-.69s.69 0 .91.34z" fill="#f58520"/><path d="m679.66 489.47c0-.69.34-.92.92-.92.22.8-.35.8-.92.92" fill="#ec1464"/></g></svg>